<svg width="284" height="52" viewBox="0 0 284 52" fill="none" xmlns="http://www.w3.org/2000/svg">
<path d="M221.474 25.2249C223.094 25.3741 224.712 25.4903 226.333 25.7393C229.408 26.2126 232.367 27.1837 235.292 28.2957C240.162 30.1472 244.861 32.4389 249.609 34.6042C254.467 36.8174 259.36 38.9394 264.44 40.5161C266.124 41.0379 267.821 41.4995 269.53 41.9074C269.976 42.0139 270.288 41.9395 270.631 41.6617C271.87 40.6642 273.143 39.7097 274.409 38.7464C274.587 38.6119 274.827 38.4957 274.722 38.2362C274.638 38.0285 274.374 38.1098 274.195 38.0745C270.475 37.3544 266.789 36.504 263.148 35.3261C260.193 34.3701 257.268 33.3491 254.369 32.2113C252.045 31.2983 249.73 30.3534 247.396 29.4721C242.988 27.8078 238.578 26.1128 233.971 25.2114C232.862 24.9945 231.74 24.8849 230.548 24.7152C231.296 24.2773 232.176 24.5018 233.1 24.0938C230.658 23.4938 228.426 23.1722 226.172 23.4925C226.119 23.4687 226.089 23.4289 226.081 23.373C229.379 21.9198 232.831 22.549 236.322 23.4155C235.541 23.6931 234.629 23.6043 233.75 24.1389C235.708 24.099 237.495 24.1237 239.288 24.3896C243.199 24.9718 247.013 26.0878 250.803 27.3022C257.41 29.4189 264.01 31.5814 270.786 32.9231C273.685 33.4978 276.605 33.9214 279.514 34.4277C279.818 34.4814 280.043 34.4168 280.258 34.2499C281.72 33.1145 283.177 31.9755 284.649 30.8515C284.813 30.7263 285.027 30.5831 284.984 30.4128C284.932 30.2208 284.646 30.2549 284.456 30.2236C280.995 29.6325 277.522 29.2359 274.06 28.7021C270.369 28.1342 266.693 27.463 263.022 26.6658C257.276 25.4169 251.586 23.7675 245.767 23.0284C244.285 22.8391 242.791 22.7317 241.313 22.8323C241.099 22.8468 240.946 22.7455 240.763 22.7303C241.344 22.5335 241.921 22.3378 242.5 22.1416C238.998 22.171 235.543 21.2049 232.089 21.3334C232.045 21.2636 232.001 21.1938 231.954 21.1246C232.357 21.0146 232.76 20.9045 233.164 20.7942C233.331 20.8406 233.486 20.8251 233.623 20.7309C236.601 20.4668 239.624 20.6924 242.614 20.5259C245.499 20.3666 248.265 19.8244 250.888 18.7704C251.262 18.7709 251.612 18.6949 251.924 18.5108C256.96 16.6131 262.363 16.4661 267.786 16.422C272.141 16.3867 276.489 16.2647 280.854 16.3687C284.86 16.4634 288.835 16.9436 292.802 17.8076C295.017 18.2893 297.249 18.6372 299.624 19.0719C298.534 19.903 297.368 20.5213 296.575 21.4558C295.207 23.0712 293.587 22.5953 291.837 22.114C288.424 21.1714 284.956 20.7036 281.476 20.445C278.907 20.2541 276.334 20.0103 273.771 19.9399C270.1 19.8386 266.424 19.5754 262.753 19.3263C260.069 19.1437 257.39 19.043 254.723 19.0909C253.126 19.1195 251.556 19.4246 249.982 19.6707C247.667 20.0324 245.629 20.9932 243.482 21.722C243.231 21.7185 243.012 21.7765 242.815 21.9751C243.109 22.0781 243.325 21.9699 243.545 21.8831C248.345 20.9639 253.216 21.4664 258.094 22.2552C266.052 23.5429 274.036 24.3315 282.014 25.2314C284.579 25.5209 287.131 25.9545 289.786 26.6007C289.558 26.7657 289.4 26.8867 289.344 27.0779C288.982 27.3418 289.36 27.5258 289.491 27.6736C290.215 28.4872 290.757 29.4062 291.307 30.3272C291.608 30.8291 291.771 31.4211 292.277 31.8038C292.273 32.0956 292.448 32.2971 292.661 32.481C292.613 32.6355 292.647 32.7461 292.841 32.7664C292.833 33.0595 293.012 33.2612 293.228 33.4439C293.185 33.6649 293.286 33.8006 293.505 33.8649C293.506 34.0889 293.574 34.2821 293.789 34.4093C293.751 34.6298 293.844 34.7699 294.071 34.8285C294.701 36.3281 295.476 37.7618 296.375 39.1356C296.321 39.367 296.419 39.5088 296.655 39.5723C296.682 39.8881 296.782 40.1763 297.056 40.3905C296.993 40.6261 297.102 40.7625 297.336 40.8272C297.366 41.1418 297.462 41.4296 297.734 41.6443C297.674 41.881 297.78 42.0199 298.019 42.0807C298.041 42.3984 298.142 42.6844 298.414 42.8992C298.364 43.1835 298.476 43.3784 298.767 43.476C298.774 43.7426 298.847 43.9837 299.094 44.154C299.051 44.4359 299.159 44.6354 299.453 44.7289C299.456 44.9967 299.522 45.2403 299.778 45.4075C299.697 45.6546 299.816 45.786 300.057 45.8462C300.091 46.1599 300.173 46.4536 300.46 46.6618C300.402 46.9504 300.517 47.1441 300.812 47.2392C300.819 47.5058 300.883 47.7498 301.138 47.9157C301.101 48.2466 301.216 48.5001 301.558 48.635C301.563 48.9023 301.615 49.1503 301.878 49.3152C301.84 49.6468 301.945 49.9065 302.298 50.038C302.306 50.3587 302.402 50.6445 302.682 50.8584C302.639 51.1932 302.752 51.4471 303.102 51.5776C303.102 51.8467 303.162 52.0919 303.42 52.2586C303.37 52.5957 303.485 52.849 303.839 52.9799C303.842 53.3038 303.949 53.5861 304.223 53.8017C304.176 54.1382 304.295 54.3884 304.641 54.5236C304.648 54.7902 304.7 55.0383 304.963 55.2034C305.206 56.2826 305.926 57.171 306.382 58.1652C306.501 58.4266 306.543 58.7772 306.924 58.8657C306.934 59.0688 306.938 59.2754 307.161 59.3997C307.145 59.8374 307.312 60.1852 307.731 60.4063C307.731 60.6142 307.744 60.8195 307.971 60.942C307.966 61.3728 308.102 61.733 308.537 61.9469C308.566 62.0312 308.599 62.1158 308.628 62.2015C308.674 62.7222 308.852 63.1803 309.342 63.4846C309.358 63.5763 309.321 63.6847 309.443 63.7425C309.458 64.2191 309.604 64.6333 310.079 64.8867C310.085 65.0368 310.07 65.1936 310.244 65.2862C310.226 65.7265 310.381 66.0798 310.821 66.2892C310.827 66.4371 310.81 66.5932 310.984 66.6844C310.97 67.123 311.106 67.4845 311.554 67.6925C311.57 67.8375 311.547 67.9953 311.715 68.0902C311.582 68.3384 311.79 68.5303 311.889 68.7243C314.391 73.5704 316.906 78.4103 319.406 83.2568C323.164 90.5503 326.915 97.848 330.665 105.144C332.989 109.668 335.304 114.194 337.627 118.716C340.582 124.475 343.545 130.231 346.495 135.991C348.322 139.559 350.126 143.137 351.946 146.709C354.729 152.171 357.512 157.632 360.302 163.09C361.209 164.86 362.139 166.62 363.056 168.383C336.484 177.385 309.91 186.387 283.337 195.389C283.304 195.161 283.276 194.933 283.236 194.705C281.824 186.478 280.315 178.258 279.024 170.021C276.801 155.826 274.714 141.619 272.574 127.417C271.489 120.215 270.283 113.017 269.369 105.805C268.175 96.4086 267.216 87 266.151 77.5958C265.996 76.2294 265.815 74.8645 265.647 73.4992C265.746 73.3864 265.732 73.2723 265.623 73.1591C265.766 72.845 265.738 72.5228 265.59 72.1982C265.686 72.083 265.674 71.9684 265.564 71.8536C265.702 71.5413 265.677 71.2214 265.532 70.8977C265.643 70.6241 265.639 70.348 265.486 70.07C265.625 69.7557 265.601 69.4352 265.451 69.1097C265.548 68.9959 265.54 68.8816 265.43 68.7655C265.564 68.4508 265.536 68.132 265.393 67.8093C265.502 67.5363 265.501 67.2595 265.35 66.9804C265.479 66.6659 265.458 66.3448 265.317 66.0196C265.408 65.9045 265.398 65.7907 265.292 65.675C265.421 65.362 265.4 65.0423 265.257 64.7196C265.364 64.4457 265.355 64.1699 265.212 63.8899C265.319 63.7383 265.325 63.5827 265.197 63.4198C265.298 62.9846 265.292 62.5474 265.135 62.1057C265.245 61.9527 265.244 61.7948 265.12 61.6305C265.223 61.3564 265.212 61.0795 265.077 60.8002C265.18 60.6497 265.187 60.4922 265.065 60.3289C265.158 59.8945 265.149 59.4572 264.998 59.0165C265.106 58.8643 265.103 58.7054 264.987 58.5417C265.086 58.2673 265.077 57.9914 264.942 57.712C265.049 57.5602 265.046 57.4029 264.93 57.2408C265.188 54.1927 265.371 51.1289 265.741 48.1025C265.905 46.7661 266.791 45.6721 267.364 44.4762C267.427 44.3445 267.502 44.23 267.5 44.0226C266.76 44.13 266.41 44.7733 265.828 45.066C265.602 45.1805 265.468 45.2242 265.17 45.1421C263.187 44.5975 261.259 43.8627 259.338 43.1307C258.027 42.6323 256.749 42.0008 255.452 41.4599C253.774 40.7594 252.134 39.9822 250.503 39.1851C248.097 38.0101 245.698 36.8161 243.335 35.5476C239.501 33.4859 235.586 31.6084 231.645 29.7913C227.286 27.7825 222.785 26.3212 218.106 25.5832C217.861 25.5453 217.672 25.4976 217.437 25.2889C218.334 25.2333 219.177 25.1809 220.022 25.1279C220.507 25.283 220.99 25.2402 221.474 25.2249Z" fill="#3B7F6E"/>
<path d="M230.262 99.18C230.225 99.2523 230.188 99.3227 230.15 99.395C230.052 99.5904 229.944 99.7826 230.018 100.019C230.006 100.071 229.994 100.122 229.982 100.174C229.756 100.415 229.789 100.738 229.742 101.032C228.671 107.927 227.602 114.824 226.538 121.72C225.721 127.011 224.72 132.276 224.139 137.603C222.823 149.652 221.714 161.732 220.527 173.801C219.459 184.68 218.363 195.555 217.353 206.442C216.957 210.718 216.762 215.02 216.475 219.309C200.409 224.826 184.343 230.344 168.277 235.861C168.569 234.004 169.118 232.212 169.573 230.398C171.667 222.051 173.782 213.709 175.9 205.369C179.481 191.26 182.974 177.125 186.705 163.06C188.286 157.096 190.374 151.278 192.236 145.397C194.539 138.114 196.78 130.811 199.176 123.563C200.406 119.845 202.136 116.316 203.634 112.7C205.403 108.429 207.204 104.172 208.986 99.908C209.623 98.3858 210.576 97.0391 211.404 95.6246C213.372 92.2698 215.375 88.9373 217.358 85.592C217.592 85.1983 217.862 84.8399 218.177 84.5058C220.364 82.1842 222.548 79.8589 224.723 77.5263C225.384 76.8192 226.199 76.2887 226.96 75.7007C227.321 75.4217 227.494 75.2568 226.923 74.9712C216.2 69.6134 206.179 63.0596 195.857 57.0165C190.864 54.0908 185.794 51.3 180.281 49.4489C177.22 48.4215 174.098 47.7002 170.887 47.4917C169.875 47.4269 168.898 47.5611 167.927 47.7593C167.914 47.7158 167.906 47.6741 167.901 47.6296C169.185 46.8982 170.543 46.3081 171.924 45.7614C174.633 44.689 177.442 44.8674 180.283 45.5036C184.85 46.5252 189.004 48.5743 193.105 50.7756C196.72 52.7163 200.224 54.8419 203.718 56.9828C208.039 59.631 212.304 62.3683 216.639 64.9887C220.059 67.0558 223.514 69.0728 227.079 70.889C228.144 71.4307 229.198 71.9909 230.248 72.559C230.595 72.7466 230.801 72.7303 231.121 72.4572C231.979 71.7203 232.9 71.0511 233.827 70.3943C234.247 70.0986 234.19 69.9843 233.742 69.7655C231.106 68.47 228.517 67.0826 225.989 65.5949C222.456 63.5157 218.945 61.3989 215.513 59.1529C212.701 57.3108 209.81 55.5867 206.951 53.8151C204.439 52.2578 201.966 50.6311 199.395 49.1745C197.393 48.041 195.356 46.9555 193.325 45.868C191.545 44.914 189.707 44.1214 187.842 43.401C185.405 42.4596 182.879 41.796 180.277 41.6818C179.173 41.6337 178.047 41.7185 177.043 42.2267C176.988 42.1697 176.933 42.1127 176.878 42.0556C177.628 41.4532 178.365 40.8373 179.152 40.2731C180.631 39.2112 182.297 38.733 184.145 38.8406C186.705 38.9908 189.139 39.775 191.518 40.7396C196.477 42.7514 201.066 45.4665 205.617 48.2403C212.941 52.7048 220.056 57.4968 227.415 61.9065C230.502 63.7547 233.627 65.5354 236.859 67.1259C237.436 67.4095 237.852 67.3953 238.336 66.9851C239.206 66.2491 240.145 65.5883 241.05 64.8882C241.304 64.6922 241.591 64.4981 241.006 64.2831C237.026 62.816 233.497 60.4941 229.888 58.3403C223.071 54.2709 216.488 49.8305 209.719 45.6834C205.013 42.8009 200.268 39.9865 195.151 37.8651C193.004 36.9742 190.807 36.264 188.51 35.9245C187.118 35.7196 185.753 35.8007 184.361 36.2587C187.462 33.3282 191.087 33.1489 195.043 34.3654C199.433 35.715 203.485 37.796 207.48 40.0302C213.141 43.1951 218.563 46.7442 224.069 50.1553C227.751 52.4358 231.416 54.7437 235.137 56.9616C237.368 58.2921 239.689 59.4763 241.973 60.7192C242.697 61.1139 243.488 61.3374 244.274 61.5639C244.585 61.6535 244.898 61.7027 244.535 62.1409C243.215 63.7342 241.953 65.3718 240.638 66.9698C240.297 67.3839 240.024 67.8224 239.816 68.3081C238.847 70.5742 237.909 72.8545 236.899 75.1018C235.373 78.4964 234.332 82.0394 233.561 85.691C232.937 88.6403 232.09 91.5362 231.357 94.4603C230.97 96.0121 230.611 97.5723 230.238 99.1288L230.224 99.1732L230.262 99.18Z" fill="#3B7F6E"/>
<path d="M35.4338 175.112C36.3549 174.567 36.9781 173.717 37.7176 172.992C41.1717 169.607 44.5865 166.183 48.0225 162.781C50.8865 159.944 53.7419 157.098 56.633 154.287C60.9781 150.061 65.3101 145.824 69.7024 141.644C71.8815 139.569 74.0339 137.468 76.2168 135.397C79.6638 132.125 83.1052 128.847 86.559 125.582C89.2565 123.031 91.9571 120.483 94.6777 117.955C97.3634 115.458 100.072 112.985 102.777 110.509C105.218 108.275 107.651 106.033 110.115 103.824C113.038 101.203 115.974 98.595 118.932 96.0112C122.763 92.6672 126.603 89.333 130.47 86.0282C137.512 80.01 144.714 74.1743 152.17 68.6323C156.387 65.4979 160.708 62.4952 165.28 59.8453C167.6 58.5013 169.987 57.2561 172.584 56.4102C173.359 56.1559 174.154 56.0198 174.968 55.9326C175.121 55.9168 175.394 56.1123 175.372 55.7858C175.354 55.4996 175.051 55.6401 174.925 55.6285C173.912 55.535 172.893 55.4386 171.882 55.4483C171.35 55.4537 170.907 55.3135 170.439 55.1082C166.897 53.5507 163.253 52.648 159.384 52.678C156.765 52.6982 154.139 52.6757 151.515 52.6773C150.549 52.6798 149.59 52.837 148.627 52.9235C148.584 52.848 148.542 52.7738 148.5 52.6997C148.87 52.5994 149.24 52.4977 149.61 52.3974C150.143 52.3231 150.676 52.2488 151.209 52.1745C153.2 51.8805 155.225 51.8602 157.237 51.7378C159.468 51.6052 161.646 51.1986 163.839 50.8768C165.678 50.6083 167.519 50.5962 169.346 51.115C174.664 52.6294 179.883 54.4281 184.858 56.9052C184.975 56.9636 185.089 57.0265 185.219 57.097C179.911 58.5511 175.768 61.7969 171.545 64.8732C162.548 71.4268 154.157 78.6727 145.839 85.9939C128.947 100.86 112.605 116.283 96.3959 131.84C77.5906 149.886 59.0645 168.199 40.7566 186.719C40.6135 186.865 40.4565 186.998 40.3059 187.136C38.6819 183.128 37.0579 179.12 35.4338 175.112Z" fill="#3B7F6E"/>
<path d="M25.8073 151.555C26.4388 151.204 26.8761 150.641 27.3691 150.152C31.8633 145.703 36.4 141.297 41.0072 136.958C44.3059 133.851 47.5355 130.676 50.8385 127.574C53.6642 124.917 56.5415 122.314 59.4128 119.704C63.2177 116.247 67.0052 112.771 70.862 109.368C74.9434 105.767 79.0742 102.218 83.2252 98.6924C90.2372 92.7365 97.3912 86.9432 104.736 81.3695C110.697 76.8466 116.787 72.4939 123.109 68.4454C126.968 65.9745 130.926 63.6473 135.06 61.6136C137.93 60.2018 140.864 58.8886 143.986 58.0159C146.222 57.3907 148.533 57.0463 150.871 56.8439C151.257 56.8118 151.641 56.767 152.214 56.7081C151.427 56.0742 150.607 56.1745 149.891 55.9913C149.16 55.8027 148.399 55.7423 147.648 55.6596C146.862 55.5724 146.068 55.4626 145.286 55.4797C144.525 55.4977 143.775 55.6632 142.851 55.7876C144.971 54.4439 147.233 54.1918 149.544 54.2702C153.353 54.3995 157.136 54.8932 160.871 55.8245C160.949 55.8448 161.03 55.8487 161.12 55.8614C160.856 56.3797 160.386 56.1907 160.03 56.2963C158.017 56.8902 156.057 57.6172 154.177 58.506C152.652 59.2279 151.167 60.0298 149.695 60.8471C147.239 62.2123 144.829 63.6474 142.506 65.2132C140.689 66.438 138.85 67.6349 137.045 68.877C135.538 69.9163 134.06 70.9958 132.583 72.0736C130.398 73.6694 128.165 75.2096 126.064 76.9023C124.06 78.5163 122.018 80.0882 120.006 81.6902C117.82 83.4307 115.655 85.2006 113.477 86.9502C112.077 88.0733 110.72 89.2658 109.339 90.4127C107.154 92.2281 104.983 94.059 102.836 95.9135C101.202 97.3233 99.5973 98.772 97.9572 100.172C95.8311 101.986 93.7631 103.862 91.6357 105.675C90.0496 107.026 88.5641 108.487 87.0143 109.879C85.2541 111.461 83.4542 113.002 81.7064 114.597C80.1169 116.047 78.5864 117.557 77.0068 119.017C75.3991 120.502 73.744 121.939 72.1447 123.433C69.5101 125.891 66.9075 128.381 64.2835 130.851C62.0414 132.961 59.7671 135.039 57.5442 137.168C55.0722 139.535 52.6508 141.951 50.1903 144.329C48.3307 146.127 46.4292 147.884 44.5738 149.685C42.9543 151.26 41.3779 152.875 39.7725 154.463C38.308 155.91 36.8006 157.317 35.365 158.791C33.9606 160.231 32.3958 161.52 31.1062 163.07C30.991 163.208 30.7542 163.249 30.5735 163.335C28.985 159.409 27.3964 155.483 25.8073 151.555Z" fill="#3B7F6E"/>
<path d="M260.899 14.2443C260.82 14.2591 260.756 14.26 260.702 14.2856C260.675 14.2988 260.673 14.3536 260.659 14.3899C260.726 14.3914 260.797 14.402 260.858 14.389C260.879 14.3844 260.879 14.3162 260.899 14.2443ZM305.411 -1.96522C299.95 -0.129496 294.291 0.984383 288.472 1.62777C282.029 2.33967 275.888 3.94637 270.357 7.10568C267.937 8.48877 265.747 10.1665 263.69 12.0045C262.841 12.7632 261.862 13.3602 261.066 14.1967C262.232 13.675 263.383 13.1238 264.569 12.6358C268.614 10.9709 272.959 10.2619 277.336 9.63821C283.687 8.73272 290.133 8.73031 296.613 8.9232C300.916 9.05116 305.206 8.94318 309.501 8.93369C309.636 8.93269 309.84 9.02337 309.887 8.79783C310.467 10.1933 311.048 11.5883 311.628 12.9834C311.154 12.9814 310.942 13.3597 310.646 13.6069C310.166 14.0065 309.636 14.1582 308.964 14.0808C303.621 13.4637 298.271 13.1281 292.93 12.4512C290.212 12.1065 287.491 11.9786 284.791 12.066C280.699 12.1991 276.618 12.4114 272.56 12.8115C270.903 12.9753 269.241 13.1314 267.597 13.347C266.215 13.5282 264.854 13.8744 263.491 14.1559C261.657 14.5346 259.993 15.2762 258.13 15.8115C260.149 14.2572 262.105 12.775 264.031 11.2617C266.513 9.31299 268.957 7.31898 271.743 5.76144C273.199 4.94777 274.695 4.21163 276.259 3.59078C278.845 2.56471 281.531 1.82518 284.282 1.26312C286.753 0.758809 289.283 0.513331 291.789 0.153965C296.322 -0.496284 300.626 -1.77821 304.789 -3.46026C304.996 -2.96185 305.203 -2.46363 305.411 -1.96522Z" fill="#3B7F6E"/>
<path d="M308.224 4.02843C305.983 4.30058 303.738 4.54777 301.504 4.84894C296.731 5.49295 291.869 5.48458 287.051 5.80078C281.136 6.18921 275.391 7.25837 269.901 9.23452C268.423 9.76656 267.044 10.4829 265.812 11.0294C267.179 9.90341 268.913 8.95249 270.7 8.07919C273.954 6.48899 277.45 5.52453 281.01 4.69321C285.687 3.60063 290.556 3.52163 295.328 2.94147C299.241 2.46589 303.048 1.56049 306.85 0.664714C307.308 1.78576 307.766 2.90719 308.224 4.02843Z" fill="#3B7F6E"/>
<path d="M244.327 19.1363C251.23 17.7672 257.317 14.8529 262.587 10.3659C265.279 8.07315 267.917 5.69464 271 3.90872C274.302 1.99612 277.809 0.551921 281.622 -0.287021C285.308 -1.09808 289.091 -1.21956 292.848 -1.54608C296.813 -1.89057 300.503 -3.07095 304.125 -4.47361C304.338 -4.55616 304.517 -4.72022 304.711 -4.84597C304.773 -4.69063 304.836 -4.53528 304.898 -4.37993C302.136 -3.42932 299.412 -2.37148 296.602 -1.56623C294.634 -1.00208 292.559 -0.72314 290.487 -0.537807C288.85 -0.391109 287.239 -0.146573 285.623 0.102717C282.128 0.641117 278.758 1.49853 275.564 2.8987C273.69 3.71985 271.941 4.74639 270.233 5.84481C266.794 8.05718 263.668 10.6721 260.472 13.1976C257.266 15.7292 253.688 17.6435 249.656 18.7254C247.897 19.1971 246.092 19.4613 244.285 19.74C243.151 19.9149 242.001 19.9644 240.875 20.1596C240.831 20.1348 240.802 20.099 240.784 20.0533C241.648 19.8108 242.514 19.5674 243.377 19.3255C243.728 19.3932 244.028 19.2723 244.327 19.1363Z" fill="#3B7F6E"/>
<path d="M261.392 9.54116C262.799 8.41835 264.077 7.15673 265.399 5.94191C268.053 3.50204 270.667 1.01313 273.714 -0.96742C277.299 -3.29733 281.333 -4.24697 285.73 -4.17399C288.72 -4.12436 291.718 -3.72232 294.705 -3.75169C298.104 -3.78646 301.402 -4.2079 304.566 -5.26261C304.587 -5.21128 304.608 -5.15995 304.629 -5.1088C302.991 -4.54988 301.391 -3.85532 299.702 -3.467C297.728 -3.01326 295.696 -2.66931 293.636 -2.62998C290.353 -2.56677 287.046 -2.7168 283.796 -2.3562C282.597 -2.22318 281.417 -1.97078 280.241 -1.70931C278.685 -1.36336 277.123 -1.04873 275.655 -0.460893C272.833 0.669574 270.404 2.39404 268.093 4.29587C265.198 6.68125 262.473 9.27183 259.418 11.4746C258.054 12.4578 256.636 13.3544 255.18 14.2028C255.086 14.258 254.95 14.2473 254.863 14.3179C256.994 12.8579 259.218 11.5132 261.132 9.76039C261.262 9.73644 261.371 9.68983 261.392 9.54116Z" fill="#3B7F6E"/>
<path d="M274.943 -3.598C276.254 -4.44292 277.471 -5.40452 278.857 -6.16286C281.584 -7.6535 284.543 -8.21631 287.715 -8.0738C291.004 -7.92469 294.28 -7.297 297.57 -7.03985C299.507 -6.88698 301.429 -6.90349 303.347 -7.02452C303.526 -7.03577 303.693 -7.12934 303.866 -7.18467C304.012 -6.83121 304.158 -6.47757 304.303 -6.12411C301.009 -5.30717 297.607 -5.2855 294.177 -5.56723C291.65 -5.77465 289.124 -6.16325 286.597 -6.37085C285.1 -6.49282 283.633 -6.36588 282.157 -6.10103C280.711 -5.84219 279.375 -5.42539 278.057 -4.87656C276.27 -4.13054 274.765 -2.9821 273.209 -1.89689C272.946 -1.71232 272.686 -1.51714 272.456 -1.34881C273.047 -2.15874 273.97 -2.66583 274.689 -3.38926C274.825 -3.39883 274.908 -3.47118 274.943 -3.598Z" fill="#3B7F6E"/>
<path d="M198.625 29.602C202.216 29.0617 205.601 30.0682 208.936 31.3554C214.377 33.4554 219.46 36.2726 224.51 39.1658C229.257 41.8862 233.917 44.7491 238.634 47.5197C242.26 49.6486 245.916 51.7304 249.691 53.5998C251.249 54.3724 252.813 55.0772 254.654 55.5164C253.46 56.4206 252.421 57.3033 251.279 58.0393C250.649 58.4476 249.922 57.9389 249.287 57.7001C246.371 56.6055 243.733 54.9652 241.033 53.4372C237.968 51.7034 234.961 49.8787 231.978 48.0108C229.35 46.364 226.671 44.7939 224.015 43.1914C221.486 41.666 218.972 40.119 216.422 38.6289C215.019 37.8079 213.531 37.1283 212.127 36.3094C210.727 35.4923 209.253 34.8096 207.793 34.1437C206.152 33.3975 204.484 32.6693 202.745 32.1172C200.983 31.5582 199.226 31.0508 197.396 30.889C196.688 30.8275 195.974 30.8804 195.264 30.8822C195.241 30.8027 195.217 30.7232 195.193 30.6436C196.124 30.3243 197.055 30.005 197.987 29.6852C198.217 29.7502 198.422 29.6832 198.625 29.602Z" fill="#3B7F6E"/>
<path d="M205.642 27.7632C208.499 27.0297 211.405 27.2487 214.303 27.8127C217.805 28.4962 221.133 29.7624 224.441 31.1102C230.094 33.4139 235.394 36.4065 240.754 39.2877C243.88 40.9679 247.002 42.6593 250.179 44.2471C253.221 45.7671 256.31 47.1734 259.463 48.442C260.441 48.8351 261.444 49.1616 262.492 49.5407C261.336 50.4275 260.231 51.2751 259.124 52.1218C258.649 52.4854 258.141 52.234 257.658 52.0997C256.666 51.8242 255.756 51.3395 254.83 50.8941C253.746 50.3732 252.609 49.9584 251.539 49.413C248.931 48.0835 246.338 46.7289 243.787 45.2905C241.846 44.1975 239.912 43.0889 237.965 42.0082C235.699 40.7501 233.488 39.3952 231.239 38.1101C230.187 37.5104 229.098 36.9799 228.028 36.4111C226.372 35.5316 224.744 34.5982 223.061 33.776C221.236 32.8818 219.375 32.0548 217.505 31.2551C213.991 29.7513 210.427 28.4152 206.602 28.0133C206.25 27.9766 205.84 28.1902 205.524 27.8349C205.574 27.8245 205.613 27.8011 205.642 27.7632Z" fill="#3B7F6E"/>
<path d="M227.394 26.0745C226.264 26.1489 225.133 26.2252 223.927 26.3054C225.082 25.9502 226.207 25.8978 227.394 26.0745Z" fill="#3B7F6E"/>
<path d="M159.562 50.5594C159.562 50.6116 159.573 50.6622 159.591 50.7117C158.894 50.7604 158.198 50.8091 157.502 50.8592C157.499 50.8434 157.497 50.829 157.496 50.8141C158.185 50.7292 158.873 50.6443 159.562 50.5594Z" fill="#3B7F6E"/>
</svg>
