<svg width="16" height="10" viewBox="0 0 16 10" fill="none" xmlns="http://www.w3.org/2000/svg">
<path d="M0.5 0.833333C0.5 0.3731 0.8731 0 1.33333 0H14.6667C15.1269 0 15.5 0.3731 15.5 0.833333C15.5 1.29357 15.1269 1.66667 14.6667 1.66667H1.33333C0.8731 1.66667 0.5 1.29357 0.5 0.833333Z" fill="white"/>
<path d="M1.33333 4.16667C0.8731 4.16667 0.5 4.53975 0.5 5C0.5 5.46017 0.8731 5.83333 1.33333 5.83333H14.6667C15.1269 5.83333 15.5 5.46017 15.5 5C15.5 4.53975 15.1269 4.16667 14.6667 4.16667H1.33333Z" fill="white"/>
<path d="M0.5 9.16667C0.5 8.70642 0.8731 8.33333 1.33333 8.33333H14.6667C15.1269 8.33333 15.5 8.70642 15.5 9.16667C15.5 9.62692 15.1269 10 14.6667 10H1.33333C0.8731 10 0.5 9.62692 0.5 9.16667Z" fill="white"/>
</svg>
